<?xml version="1.0" encoding="utf-8"?>
<!-- Generator: Adobe Illustrator 16.0.0, SVG Export Plug-In . SVG Version: 6.00 Build 0)  -->
<!DOCTYPE svg PUBLIC "-//W3C//DTD SVG 1.1//EN" "http://www.w3.org/Graphics/SVG/1.1/DTD/svg11.dtd">
<svg version="1.1" xmlns="http://www.w3.org/2000/svg" xmlns:xlink="http://www.w3.org/1999/xlink" x="0px" y="0px" width="50px"
	 height="50px" viewBox="0 0 50 50" enable-background="new 0 0 50 50" xml:space="preserve">
<g id="Layer_1" display="none">
	<g display="inline" opacity="0.5">
		<path fill="#EE6323" d="M48.29,23.688h-7.613L40.686,4.52c0-2.336-1.894-4.229-4.229-4.229H8.561
			c-1.869,0-3.385,1.514-3.385,3.383v9.877H2.64c-0.468,0-0.847,0.377-0.847,0.845v5.612c0,0.467,0.379,0.846,0.847,0.846h2.537
			v9.042c0,0.467,0.379,0.848,0.846,0.848h4.23v15.151c0,1.868,1.515,3.384,3.382,3.384h27.899c1.868-0.002,3.384-1.518,3.381-3.389
			c0-1.866-1.515-3.379-3.381-3.379h-0.846V30.729h7.613c0.467,0,0.846-0.378,0.846-0.846l-0.01-5.351
			C49.138,24.063,48.758,23.687,48.29,23.688z M7.124,3.872c0-0.893,0.545-1.622,1.437-1.622c0.891,0,1.437,0.711,1.437,1.604
			l0.001,9.653H7.144L7.124,3.872z M10.273,28.789H7.126l-0.001-7.936h3.147L10.273,28.789z M3.751,18.875v-3.371l23.015-0.009
			c0.424,0,0.783-0.315,0.838-0.737l2.915,2.429l-2.915,2.417c-0.055-0.421-0.414-0.738-0.838-0.738L3.751,18.875z M15.328,43.354
			l0.01,2.268c0,0.935-0.571,1.68-1.506,1.68c-0.933,0-1.596-0.82-1.596-1.755l-0.031-24.701h14.187v0.483
			c0.001,0.466,0.381,0.846,0.848,0.846c0.196-0.002,0.388-0.071,0.54-0.199l5.009-4.129c0.357-0.298,0.405-0.832,0.106-1.19
			c-0.034-0.039-0.068-0.077-0.106-0.107l-5.089-4.537c-0.359-0.3-0.893-0.25-1.192,0.108c-0.127,0.151-0.195,0.343-0.196,0.541
			v0.845H11.931l0.013-9.562c-0.003-0.596-0.166-1.181-0.469-1.693l24.722-0.003c1.401,0,2.538,1.137,2.538,2.539l-0.009,18.898
			l-14.112,0.002l0.009-0.569c-0.001-0.467-0.38-0.844-0.848-0.844c-0.197,0-0.388,0.069-0.54,0.196l-5.076,4.229
			c-0.358,0.299-0.407,0.832-0.107,1.189c0.033,0.041,0.068,0.075,0.107,0.109l4.963,3.959c0.358,0.298,0.988,0.344,1.288-0.014
			c0.126-0.153,0.195-0.345,0.196-0.543l0.017-0.667l14.097-0.005l-0.01,11.776L16.173,42.51
			C15.707,42.51,15.328,42.888,15.328,43.354z M41.557,44.467c0.779,0,1.408,0.632,1.408,1.408c0,0.779-0.631,1.411-1.408,1.411
			l-24.644-0.012c0.25-0.429,0.38-0.914,0.38-1.408v-1.41L41.557,44.467z M24.368,28.748c-0.108,0-0.216,0.021-0.316,0.063
			c-0.089,0.053-0.176,0.107-0.259,0.169c-0.027,0.029-0.052,0.062-0.075,0.096c-0.041,0.05-0.076,0.101-0.105,0.157
			c-0.016,0.039-0.029,0.08-0.039,0.121c-0.018,0.041-0.031,0.084-0.042,0.128l-2.969-2.206l2.932-2.367
			c0.01,0.043,0.024,0.086,0.042,0.127c0.01,0.041,0.023,0.082,0.04,0.121c0.028,0.057,0.063,0.107,0.104,0.157
			c0.022,0.032,0.047,0.066,0.075,0.096c0.084,0.062,0.17,0.116,0.259,0.169c0.1,0.043,0.209,0.063,0.319,0.063l22.882-0.039
			l-0.023,3.119L24.368,28.748z"/>
		<rect x="16.189" y="8.125" fill="#EE6323" width="8.167" height="1.962"/>
		<rect x="30.883" y="32.781" fill="#EE6323" width="4.901" height="1.962"/>
		<rect x="19.453" y="35.883" fill="#EE6323" width="16.331" height="1.962"/>
		<rect x="19.452" y="39.112" fill="#EE6323" width="16.331" height="1.962"/>
		<rect x="16.189" y="5.025" fill="#EE6323" width="8.167" height="1.962"/>
	</g>
</g>
<g id="Layer_2" display="none">
	<g id="Group_312_2_" transform="translate(-902 -644.085)" display="inline">
		<g id="bitcoin_4_" transform="translate(893 642.085)">
			<path id="Path_72_4_" fill="#EE6323" d="M50.089,2.658H20.976c-2.514,0-4.551,2.038-4.551,4.551l0,0v31.838h-3.637V43.6
				c0,2.512,2.037,4.551,4.551,4.551l0,0h25.472c2.515,0,4.55-2.039,4.55-4.551l0,0V24.493h6.37c0.502,0,0.91-0.407,0.91-0.91l0,0
				V7.209C54.641,4.696,52.603,2.658,50.089,2.658L50.089,2.658z M17.339,46.32c-1.508,0-2.729-1.221-2.729-2.727l0,0v-2.727h23.654
				v2.73c-0.003,0.984,0.317,1.943,0.909,2.73L17.339,46.32z M45.541,7.209v36.389c-0.002,1.506-1.226,2.729-2.732,2.727
				c-1.507,0-2.726-1.223-2.728-2.727v-4.553H18.247V7.209c0-1.507,1.223-2.729,2.729-2.729h25.498
				C45.871,5.262,45.543,6.221,45.541,7.209z M52.818,22.675h-5.46V7.209c0.002-1.507,1.226-2.728,2.732-2.727
				c1.507,0.001,2.726,1.222,2.728,2.727V22.675z"/>
			<path id="Path_76_4_" fill="#EE6323" d="M23.706,18.124h17.363v1.819H23.706V18.124z"/>
			<path id="Path_78_4_" fill="#EE6323" d="M23.706,21.763h17.363v1.82H23.706V21.763z"/>
			<path id="Path_83_4_" fill="#EE6323" d="M23.706,25.402h12.735v1.82H23.706V25.402z"/>
		</g>
		<circle id="Ellipse_44_2_" fill="#EE6323" cx="939.377" cy="682.572" r="10.835"/>
		<line id="Line_15_2_" fill="none" stroke="#FFFFFF" stroke-width="2" x1="934.069" y1="682.138" x2="937.868" y2="685.937"/>
		<line id="Line_16_2_" fill="none" stroke="#FFFFFF" stroke-width="2" x1="943.601" y1="679.605" x2="937.271" y2="685.937"/>
	</g>
</g>
<g id="Layer_12" display="none">
	<g id="Statement_Request" display="inline">
		<g id="bitcoin" transform="translate(-9 -2)">
			<path id="Path_72" fill="#ED6425" d="M51.541,2.631H20.353c-2.692,0-4.875,2.182-4.875,4.875l0,0v34.111h-3.896v4.874
				c0,2.691,2.182,4.877,4.875,4.877l0,0h27.288c2.693,0,4.876-2.184,4.876-4.877l0,0V26.023h6.822c0.537,0,0.975-0.437,0.975-0.975
				l0,0V7.508C56.418,4.813,54.235,2.631,51.541,2.631L51.541,2.631z M16.457,49.41c-1.616,0-2.924-1.311-2.924-2.924l0,0v-2.921
				h25.34v2.925c-0.002,1.055,0.34,2.081,0.975,2.925L16.457,49.41z M46.67,7.508v38.984c-0.002,1.614-1.313,2.923-2.927,2.921
				c-1.614,0-2.92-1.309-2.923-2.921v-4.876H17.43V7.508c0-1.616,1.309-2.925,2.923-2.925H47.67
				C47.024,5.422,46.672,6.448,46.67,7.508z M54.467,24.076h-5.849V7.508c0.001-1.616,1.312-2.924,2.926-2.923
				c1.614,0.002,2.92,1.31,2.924,2.923L54.467,24.076L54.467,24.076z"/>
			<path id="Path_76" fill="#ED6425" d="M23.278,19.2h18.601v1.95H23.278V19.2z"/>
			<path id="Path_78" fill="#ED6425" d="M23.278,23.099h18.601v1.95H23.278V23.099z"/>
			<path id="Path_83" fill="#ED6425" d="M23.278,27h13.644v1.948H23.278V27z"/>
		</g>
	</g>
</g>
<g id="Layer_4" display="none">
	<g id="Address_Change_Request" display="inline">
		<g>
			<path id="XMLID_4_" fill="#ED6425" d="M24.263,48.654c-0.049,0.609-0.505,0.963-1.152,0.963c-3.145,0-4.188-2.191-5.03-3.951
				c-0.117-0.233-2.279-4.519-2.279-4.519c-4.593-9.029-9.5-19.069-9.5-23.96C6.304,7.905,13.828,0.383,23.109,0.384
				c8.221,0,15.314,5.942,16.657,14.053c0.105,0.644-0.143,1.199-0.784,1.304c-0.643,0.106-1.065-0.432-1.171-1.073
				C36.644,7.611,30.112,2.532,23.189,2.463c-0.797-0.008-1.605,0.052-2.418,0.188c-6.89,1.062-12.497,7.401-12.496,14.473
				c0.464,5.23,3.256,10.494,5.572,15.607c2.945,6.502,5.665,11.668,5.732,11.807c0.861,1.812,1.85,3.226,3.592,3.114
				C23.171,47.652,24.252,47.647,24.263,48.654z"/>
			<path id="Path_89_8_" fill="#ED6425" d="M40.951,19.472c-1.796-0.89-3.974-0.159-4.868,1.635l-9.062,18.226
				c-0.064,0.124-0.092,0.264-0.087,0.401l0.383,7.081c0.023,0.445,0.403,0.786,0.848,0.762c0.148-0.009,0.29-0.057,0.411-0.138
				l5.875-3.969c0.113-0.08,0.205-0.187,0.269-0.311l9.063-18.227c0.892-1.795,0.162-3.973-1.634-4.867L40.951,19.472z
				 M29.572,38.579l6.53-13.11l4.19,2.083l-6.526,13.108L29.572,38.579z M28.668,40.35l4.228,2.101l-3.971,2.684L28.668,40.35z
				 M41.984,24.167l-0.795,1.615l-4.204-2.092l0.793-1.614c0.432-0.873,1.492-1.227,2.363-0.792l1.05,0.52
				c0.873,0.433,1.229,1.49,0.797,2.364H41.984z"/>
			<path fill="#ED6425" d="M23.579,12.126c-3.303,0-5.982,2.678-5.982,5.982c0,3.302,2.677,5.982,5.982,5.982
				s5.983-2.678,5.983-5.982C29.562,14.804,26.884,12.126,23.579,12.126z M23.578,22.139c-2.223,0-4.03-1.805-4.03-4.031
				c0-2.225,1.805-4.03,4.03-4.03c2.225,0,4.033,1.805,4.033,4.03C27.61,20.334,25.805,22.139,23.578,22.139z"/>
		</g>
	</g>
</g>
<g id="Layer_9" display="none">
	<g id="New_Paper_Roll" display="inline">
		<g>
			<path id="Path_84" fill="#ED6425" d="M37.193,47.262H14.74C6.726,47.253,0.23,40.757,0.221,32.743v-9.679
				c-0.018-0.534,0.4-0.981,0.935-1c0.536-0.018,0.983,0.401,1,0.936c0,0.021,0,0.044,0,0.064v5.808h1.578
				c0.534,0.019,0.953,0.464,0.936,1.002c-0.018,0.506-0.426,0.915-0.936,0.936H2.157v1.934c0.006,6.947,5.637,12.578,12.584,12.585
				H31.4c-3.453-2.478-6.495-7.605-6.767-14.518h-1.568c-0.536-0.021-0.954-0.468-0.937-1c0.019-0.514,0.427-0.92,0.937-0.937h1.549
				V5.927l-2.535,2.358c-0.372,0.345-0.947,0.345-1.318,0L17.283,5.05L14.07,8.262c-0.376,0.378-0.99,0.378-1.368,0.001V8.262
				L9.489,5.05L6.013,8.286c-0.373,0.346-0.948,0.346-1.319,0L2.159,5.927v9.394c-0.018,0.535-0.464,0.952-1,0.935
				c-0.508-0.017-0.919-0.426-0.935-0.935V3.708c0-0.537,0.435-0.968,0.97-0.967c0.243,0,0.479,0.093,0.656,0.258l3.501,3.258
				l3.506-3.258c0.38-0.355,0.975-0.345,1.343,0.023l3.188,3.188l3.187-3.188c0.367-0.367,0.962-0.378,1.342-0.024l3.499,3.259
				l3.506-3.258c0.394-0.364,1.004-0.34,1.37,0.051c0.166,0.179,0.258,0.415,0.258,0.659v8.711h10.648
				c7.959,0,12.582,9.226,12.582,17.422C49.777,38.072,45.129,47.262,37.193,47.262z M26.549,14.353v6.169
				c1.059-2.438,2.73-4.564,4.85-6.169H26.549z M37.193,14.353c-5.871,0-10.645,6.947-10.645,15.482
				c0,8.538,4.771,15.484,10.643,15.484l0,0c5.873,0,10.646-6.946,10.646-15.484C47.838,21.3,43.064,14.353,37.193,14.353z"/>
			<path id="Path_85" fill="#ED6425" d="M37.193,37.579c-2.717,0-4.836-3.394-4.836-7.741c0-4.346,2.119-7.741,4.836-7.741
				c2.721,0,4.84,3.402,4.84,7.741C42.033,34.179,39.91,37.579,37.193,37.579z M37.193,24.028c-1.373,0-2.902,2.386-2.902,5.807
				c0,3.424,1.529,5.808,2.902,5.808c1.375,0,2.902-2.38,2.902-5.805c0-3.424-1.527-5.805-2.902-5.805V24.028z"/>
			<path id="Path_86" fill="#ED6425" d="M19.221,28.87c0.534,0.019,0.952,0.464,0.936,1.001c-0.016,0.508-0.425,0.916-0.936,0.938
				h-3.9c-0.536-0.021-0.953-0.467-0.936-1.003c0.018-0.509,0.425-0.919,0.936-0.936H19.221z"/>
			<path id="Path_87" fill="#ED6425" d="M11.478,28.87c0.535,0.019,0.953,0.464,0.935,1.001c-0.017,0.508-0.425,0.916-0.935,0.938
				H7.579c-0.536-0.021-0.954-0.467-0.937-1.003c0.017-0.509,0.426-0.919,0.937-0.936H11.478z"/>
			<path id="Path_88" fill="#ED6425" d="M2.157,19.192c0-0.535-0.434-0.967-0.967-0.967c-0.536,0-0.969,0.433-0.969,0.967
				c0,0.535,0.433,0.969,0.969,0.969l0,0C1.723,20.161,2.157,19.727,2.157,19.192z"/>
		</g>
	</g>
</g>
<g id="Layer_8" display="none">
	<g id="Mobile_Number" display="inline">
		<path fill="none" stroke="#ED6425" stroke-width="1.68" d="M12.434,1.297h24.719c1.95,0,3.531,1.581,3.531,3.531l0.065,40.506
			c0,1.949-1.581,3.531-3.53,3.531H12.5c-1.951,0-3.531-1.582-3.531-3.531L8.903,4.828C8.903,2.878,10.484,1.297,12.434,1.297z"/>
		<rect x="21.489" y="4.081" fill="#ED6425" width="7.652" height="1.981"/>
		<path fill="#ED6425" d="M25.315,39.898c1.787,0,3.235,1.446,3.235,3.235c0,1.786-1.448,3.232-3.235,3.232
			s-3.234-1.446-3.234-3.232C22.081,41.345,23.528,39.898,25.315,39.898z"/>
		<rect x="9.313" y="36.229" fill="#ED6425" width="31.784" height="1.982"/>
		<path id="Path_89_2_" fill="#ED6425" d="M32.793,11.321c-1.53-1.303-3.83-1.122-5.138,0.409L16.042,25.288
			c-0.092,0.105-0.151,0.232-0.182,0.368l-1.35,6.988c-0.084,0.439,0.202,0.862,0.641,0.949c0.146,0.025,0.295,0.016,0.433-0.033
			l6.687-2.436c0.13-0.051,0.245-0.132,0.337-0.236L34.226,17.33c1.301-1.532,1.12-3.829-0.411-5.138L32.793,11.321z M18.709,25.172
			l7.904-9.192l3.577,3.05l-7.902,9.191L18.709,25.172z M17.604,26.562l3.599,3.081l-4.521,1.641L17.604,26.562z M32.66,16.144
			l-1.168,1.379l-3.584-3.06l1.163-1.379c0.635-0.744,1.751-0.833,2.496-0.198l0.896,0.762c0.744,0.634,0.834,1.751,0.202,2.496
			L32.66,16.144z"/>
	</g>
</g>
<g id="Layer_3" display="none">
	<g display="inline">
		<g id="Account">
			<g id="block-credit-card_2_" transform="translate(0.75 -15.532)">
				<path id="Path_91_2_" fill="#ED6425" d="M46.359,40.904V23.701c-0.003-2.465-2.001-4.466-4.472-4.466H4.405
					c-2.465,0.003-4.464,2-4.468,4.466v23.414c0.003,2.47,2.003,4.468,4.468,4.472h19.769c1.99,6.586,8.945,10.313,15.536,8.317
					c6.588-1.99,10.31-8.944,8.314-15.533C47.655,43.137,47.09,41.969,46.359,40.904z M27.617,38.768H1.663v-7.526h42.971v7.82
					C39.476,33.433,30.992,35.084,27.617,38.768z M4.405,20.962h37.483c1.56,0,2.742,1.39,2.742,2.739v5.812H1.663v-5.812
					C1.666,22.756,2.529,20.991,4.405,20.962z M4.405,49.857c-0.946,0-2.794-0.597-2.739-2.742v-6.621h24.338
					c-2.05,2.633-2.563,5.835-2.358,8.524c0,0.284,0.01,0.564,0.029,0.841H4.405V49.857z M36.11,58.733
					c-5.93,0-10.739-4.809-10.739-10.741c0-5.932,4.81-10.741,10.739-10.741c5.934,0,10.741,4.809,10.741,10.741
					C46.84,53.919,42.044,58.722,36.11,58.733z"/>
			</g>
		</g>
		<path id="Path_92_2_" fill="#ED6425" d="M29.056,34.571c0,0.749,0.605,1.359,1.36,1.359l0,0H43.56c0.75,0,1.357-0.61,1.357-1.359
			v-4.382c0-0.751-0.607-1.359-1.357-1.359l0,0H30.416c-0.755,0-1.36,0.608-1.36,1.359V34.571z M43.2,34.434H30.689v-4.106H43.2
			V34.434z"/>
	</g>
</g>
<g id="Layer_16" display="none">
	<g display="inline">
		<g>
			<g>
				<g>
					<path fill="#ED6526" d="M39.04,34.317c-1.781,0-5.473,0.989-7.344,1.529c-0.248-2.618-3.602-3.544-7.067-4.249
						c-1.582-0.321-2.762-0.889-3.898-1.438c-1.404-0.678-2.73-1.318-4.495-1.318c-2.021,0-3.862,0.414-4.899,0.699
						c-0.274-0.956-1.055-1.726-2.089-1.931l-7.429-1.487c-0.268-0.052-0.546,0.017-0.756,0.188
						c-0.212,0.175-0.335,0.434-0.335,0.708v14.595c0,0.507,0.408,0.916,0.913,0.916h5.717c1.125,0,2.083-0.718,2.498-1.725
						c2.041,0.975,11.491,5.372,15.503,5.372c3.541,0,10.822-3.581,15.639-5.95c1.261-0.617,2.3-1.13,2.973-1.426
						c0.334-0.146,0.544-0.475,0.544-0.835C44.513,35.817,42.265,34.317,39.04,34.317z M9.614,30.422l-1.357,9.495
						c-0.063,0.448-0.452,0.785-0.902,0.785H2.551V28.131l6.338,1.268C9.364,29.492,9.683,29.942,9.614,30.422z M40.192,38.589
						c-4.384,2.153-11.723,5.762-14.834,5.762c-3.319,0-12.032-3.887-15.109-5.382c-0.002-0.002-0.007-0.002-0.011-0.002
						l1.074-7.518c0.664-0.208,2.696-0.783,4.924-0.783c1.347,0,2.385,0.501,3.703,1.138c1.18,0.571,2.52,1.215,4.325,1.583
						c3.963,0.802,5.655,1.627,5.655,2.754c0,0.223-0.07,0.36-0.244,0.488c-0.574,0.434-2.842,1.164-11.359-1.362
						c-0.48-0.144-0.991,0.133-1.134,0.616c-0.143,0.482,0.133,0.99,0.618,1.132c4.2,1.248,7.414,1.866,9.694,1.866
						c1.483,0,2.569-0.263,3.274-0.79c0.063-0.045,0.103-0.101,0.161-0.15c0.056-0.009,0.111,0.002,0.169-0.017
						c1.611-0.497,6.182-1.785,7.938-1.785c1.489,0,3.056,0.454,3.514,1.303C41.918,37.741,41.11,38.137,40.192,38.589z"/>
				</g>
			</g>
		</g>
		<path fill="#ED6526" d="M36.488,29.384c7.052,0,12.782-5.731,12.782-12.781c0-7.046-5.735-12.78-12.782-12.78
			c-7.042,0-12.777,5.732-12.777,12.78C23.709,23.653,29.442,29.384,36.488,29.384z M36.488,5.618
			c6.06,0,10.989,4.929,10.989,10.984s-4.93,10.986-10.989,10.986c-6.054,0-10.982-4.929-10.982-10.986
			C25.506,10.546,30.435,5.618,36.488,5.618z"/>
		<g>
			<path fill="#ED6526" d="M40.849,13.506c-0.053-0.054-0.126-0.083-0.213-0.083h-1.579c-0.105-0.512-0.301-0.953-0.593-1.329h2.15
				c0.09,0,0.16-0.027,0.215-0.083c0.053-0.054,0.083-0.127,0.083-0.211v-0.945c0-0.085-0.03-0.155-0.083-0.211
				c-0.055-0.056-0.125-0.083-0.215-0.083h-7.677c-0.088,0-0.158,0.026-0.213,0.083c-0.058,0.056-0.084,0.126-0.084,0.211v1.229
				c0,0.08,0.028,0.149,0.09,0.208c0.056,0.06,0.125,0.087,0.207,0.087h1.337c1.301,0,2.123,0.349,2.474,1.043h-3.811
				c-0.088,0-0.158,0.029-0.213,0.083c-0.058,0.056-0.084,0.127-0.084,0.211v0.943c0,0.086,0.026,0.155,0.084,0.212
				c0.055,0.056,0.125,0.083,0.213,0.083h3.938c-0.131,0.504-0.45,0.889-0.946,1.153c-0.495,0.266-1.149,0.397-1.96,0.397h-1.032
				c-0.082,0-0.151,0.03-0.207,0.088c-0.062,0.057-0.09,0.128-0.09,0.208v1.171c0,0.079,0.026,0.148,0.084,0.203
				c1.183,1.257,2.717,3.012,4.597,5.272c0.057,0.074,0.133,0.11,0.234,0.11h1.799c0.129,0,0.218-0.054,0.265-0.166
				c0.063-0.11,0.048-0.218-0.035-0.314c-1.797-2.204-3.208-3.854-4.236-4.949c1.045-0.123,1.895-0.462,2.549-1.015
				c0.651-0.553,1.048-1.272,1.19-2.16h1.549c0.087,0,0.16-0.027,0.213-0.083c0.058-0.056,0.087-0.125,0.087-0.211v-0.942
				C40.936,13.633,40.906,13.562,40.849,13.506z"/>
		</g>
	</g>
</g>
<g id="Layer_14" display="none">
	<g id="Trading" display="inline">
		<g id="Group_299" transform="translate(-444.22 -398.285)">
			<path id="Path_93" fill="none" stroke="#ED6425" stroke-width="2" d="M445.471,408.231c0,0,16.752-4.883,23.538,13.27
				c6.787,18.15,21.316,16.694,21.316,16.694"/>
			<path id="Path_94" fill="none" stroke="#ED6425" stroke-width="2" d="M445.471,437.627c0,0,16.752,4.883,23.538-13.27
				c6.787-18.15,21.316-16.696,21.316-16.696"/>
			<path id="Path_95" fill="none" stroke="#ED6425" stroke-width="2" d="M486.284,403.537l5.559,4.485l-5.559,5.471"/>
			<path id="Path_96" fill="none" stroke="#ED6425" stroke-width="2" d="M486.284,433.075l5.559,4.485l-5.559,5.473"/>
		</g>
	</g>
</g>
<g id="Layer_7" display="none">
	<g id="Layer_21" display="inline">
		<g>
			<path fill="#ED6425" d="M25,0.381c-10.635,0-19.256,8.621-19.256,19.256c0,10.635,8.621,19.257,19.256,19.257
				c10.635,0,19.256-8.622,19.256-19.257C44.257,9.002,35.636,0.381,25,0.381z M25,36.974c-9.574,0-17.334-7.762-17.334-17.334
				c0-9.574,7.761-17.335,17.334-17.335c9.575,0,17.334,7.761,17.334,17.335C42.335,29.212,34.574,36.974,25,36.974z"/>
			<g>
				<path id="Path_108_2_" fill="#ED6425" d="M13.704,33.135l-7.96,11.559l5.853-1.077l1.076,5.856l7.666-11.141 M13.717,44.583
					l-0.586-3.192l-3.192,0.585l4.988-7.25c1.034,1.149,2.262,2.105,3.625,2.828L13.717,44.583z"/>
			</g>
			<g>
				<path id="Path_108_1_" fill="#ED6425" d="M29.495,38.332l7.834,11.287l1.076-5.857l5.852,1.078l-8.128-11.705 M31.282,37.554
					c1.364-0.723,2.59-1.679,3.624-2.828l5.156,7.396l-3.191-0.586l-0.587,3.193L31.282,37.554z"/>
			</g>
			<g>
				<path id="Path_109_1_" fill="#ED6425" d="M37.828,18.883c-0.335-0.118-0.706-0.01-0.93,0.264l-3.354,4.177
					c-0.283,0.366-0.215,0.89,0.15,1.17c0.354,0.274,0.866,0.219,1.152-0.121l1.521-1.891c-1.566,6.274-7.927,10.087-14.201,8.524
					c-3.241-0.811-5.981-2.964-7.535-5.92c-0.227-0.404-0.736-0.547-1.138-0.32c-0.385,0.219-0.54,0.701-0.342,1.1
					c3.434,6.546,11.524,9.062,18.07,5.626c4.394-2.307,7.151-6.854,7.164-11.818C38.387,19.319,38.163,19.001,37.828,18.883z"/>
				<path id="Path_110_1_" fill="#ED6425" d="M16.462,15.957c0.295-0.355,0.251-0.883-0.105-1.179
					c-0.354-0.297-0.882-0.25-1.177,0.103c-0.009,0.01-0.015,0.019-0.024,0.026L13.637,16.8c1.566-6.274,7.923-10.091,14.201-8.524
					c3.238,0.809,5.979,2.964,7.531,5.92c0.205,0.416,0.704,0.587,1.119,0.383s0.59-0.704,0.385-1.12
					c-0.008-0.015-0.015-0.029-0.023-0.043c-3.433-6.542-11.524-9.064-18.066-5.631c-4.396,2.306-7.153,6.859-7.167,11.822
					c0.002,0.459,0.374,0.836,0.839,0.839c0.253,0,0.494-0.117,0.652-0.313L16.462,15.957z"/>
			</g>
		</g>
	</g>
</g>
<g id="Layer_5" display="none">
	<g id="Email_Address" display="inline">
		<g>
			<g id="Group_301_2_" transform="translate(-902 -409)">
				<g id="Group_300_2_" transform="translate(902 409)">
					<g id="Rectangle_216_2_" transform="translate(0 0)">
						<path fill="none" stroke="#ED6425" stroke-width="1.68" d="M32.764,35.458H6.003c-2.294,0-4.154-1.86-4.154-4.154V14.909
							c0-2.294,1.86-4.155,4.154-4.155h31.948c2.294,0,4.154,1.86,4.154,4.155v7.325"/>
					</g>
					<line id="Line_11_2_" fill="none" stroke="#ED6425" stroke-width="1.68" x1="2.972" y1="11.875" x2="22.409" y2="21.51"/>
					<line id="Line_12_2_" fill="none" stroke="#ED6425" stroke-width="1.68" x1="40.983" y1="11.875" x2="21.615" y2="21.51"/>
				</g>
			</g>
			<path id="Path_89_1_" fill="#ED6425" d="M47.037,19.325c-1.455-1.017-3.459-0.664-4.479,0.789L32.215,34.88
				c-0.071,0.1-0.114,0.218-0.128,0.339l-0.602,6.252c-0.038,0.392,0.25,0.74,0.643,0.779c0.129,0.014,0.261-0.013,0.376-0.066
				l5.671-2.699c0.108-0.057,0.202-0.138,0.275-0.236l10.344-14.766c1.016-1.454,0.666-3.459-0.787-4.478L47.037,19.325z
				 M34.547,34.554l7.452-10.618l3.395,2.38l-7.446,10.618L34.547,34.554z M33.523,35.988l3.425,2.399l-3.831,1.823L33.523,35.988z
				 M47.32,23.572l-0.908,1.309l-3.405-2.387l0.906-1.309c0.495-0.708,1.471-0.878,2.176-0.382l0.852,0.593
				c0.706,0.494,0.878,1.467,0.385,2.176H47.32z"/>
		</g>
	</g>
</g>
<g id="Layer_15">
	<g id="sticker" transform="translate(-4.953)">
		<g id="Group_305" transform="translate(4.953)">
			<path id="Path_102" fill="#EE6323" d="M24.91,11.586c-7.472,0-13.53,6.056-13.53,13.527c0,7.471,6.058,13.529,13.53,13.529
				c7.471,0,13.529-6.059,13.529-13.529C38.434,17.645,32.38,11.591,24.91,11.586z M24.91,36.343
				c-6.202,0-11.233-5.024-11.233-11.229c0-6.203,5.031-11.23,11.233-11.23c6.204,0,11.233,5.027,11.233,11.23l0,0
				C36.134,31.315,31.109,36.335,24.91,36.343z"/>
			<path id="Path_103" fill="#EE6323" d="M45.809,25.846c-0.388-0.529-0.391-1.246-0.01-1.782l0.797-1.132
				c1.219-1.728,0.807-4.118-0.921-5.337c-0.123-0.09-0.254-0.17-0.391-0.243l-1.217-0.657c-0.58-0.307-0.896-0.95-0.787-1.596
				l0.232-1.368c0.352-2.083-1.052-4.055-3.135-4.406c-0.153-0.025-0.309-0.041-0.466-0.047L38.531,9.22
				c-0.657-0.022-1.226-0.464-1.406-1.095l-0.401-1.322c-0.596-2.029-2.721-3.196-4.752-2.603c-0.146,0.043-0.292,0.095-0.436,0.157
				l-1.275,0.542c-0.602,0.251-1.295,0.098-1.734-0.384l-0.925-1.029c-1.405-1.573-3.82-1.709-5.393-0.304
				c-0.12,0.105-0.232,0.22-0.336,0.341l-0.9,1.052c-0.435,0.488-1.128,0.653-1.735,0.412L17.953,4.46
				C17.491,4.272,17,4.172,16.501,4.17c-1.723,0-3.231,1.154-3.685,2.813l-0.367,1.341c-0.175,0.63-0.731,1.079-1.383,1.116
				L9.683,9.523c-2.103,0.12-3.709,1.922-3.59,4.025c0.009,0.158,0.028,0.314,0.055,0.47l0.253,1.358
				c0.125,0.647-0.182,1.302-0.757,1.621l-1.21,0.673c-1.846,1.032-2.507,3.364-1.476,5.211c0.074,0.134,0.157,0.261,0.248,0.385
				l0.815,1.117c0.387,0.529,0.391,1.246,0.01,1.78l-0.797,1.132c-1.22,1.728-0.81,4.116,0.917,5.339
				c0.125,0.089,0.254,0.169,0.39,0.242l1.219,0.657c0.578,0.307,0.895,0.947,0.788,1.594l-0.23,1.368
				c-0.35,2.083,1.054,4.053,3.133,4.406c0.156,0.025,0.311,0.04,0.467,0.047l1.382,0.056c0.656,0.026,1.221,0.467,1.403,1.098
				l0.384,1.334c0.592,2.027,2.719,3.194,4.75,2.6c0.147-0.045,0.293-0.092,0.436-0.156l1.277-0.543
				c0.599-0.248,1.294-0.095,1.733,0.385l0.927,1.029c1.404,1.574,3.816,1.712,5.391,0.31c0.118-0.106,0.23-0.225,0.337-0.346
				l0.91-1.048c0.433-0.494,1.127-0.657,1.733-0.416l1.283,0.526c0.462,0.19,0.954,0.288,1.453,0.291
				c1.723,0,3.231-1.154,3.687-2.814l0.365-1.342c0.175-0.627,0.731-1.079,1.384-1.113l1.382-0.085
				c2.103-0.118,3.713-1.918,3.593-4.022c-0.009-0.158-0.028-0.319-0.058-0.478l-0.252-1.359c-0.12-0.647,0.186-1.296,0.76-1.613
				l1.209-0.676c1.849-1.028,2.507-3.365,1.475-5.211c-0.075-0.131-0.155-0.261-0.248-0.385L45.809,25.846z M45.03,29.551
				c-0.095,0.428-0.368,0.792-0.75,1.003l-1.209,0.673c-1.437,0.798-2.205,2.419-1.905,4.034l0.255,1.36
				c0.082,0.43-0.025,0.876-0.301,1.219c-0.269,0.343-0.677,0.56-1.115,0.578l-1.385,0.088c-1.64,0.089-3.033,1.219-3.467,2.803
				l-0.362,1.326c-0.179,0.667-0.783,1.126-1.473,1.126c-0.197-0.003-0.396-0.036-0.581-0.113l-1.282-0.523
				c-0.462-0.189-0.956-0.287-1.454-0.289c-1.106,0-2.158,0.479-2.886,1.313l-0.909,1.038c-0.555,0.635-1.518,0.702-2.154,0.15
				c-0.048-0.04-0.091-0.086-0.134-0.132l-0.928-1.033c-0.727-0.808-1.762-1.272-2.85-1.274c-0.52-0.003-1.032,0.105-1.51,0.31
				l-1.276,0.544c-0.189,0.084-0.395,0.126-0.6,0.126c-0.679,0-1.279-0.445-1.47-1.101l-0.384-1.328
				c-0.459-1.578-1.87-2.688-3.509-2.762l-1.385-0.052c-0.839-0.037-1.49-0.747-1.454-1.592c0.003-0.059,0.01-0.122,0.021-0.18
				l0.233-1.372c0.273-1.618-0.519-3.232-1.969-4.002l-1.219-0.655c-0.389-0.206-0.671-0.564-0.769-0.993
				c-0.106-0.425-0.017-0.881,0.243-1.229l0.796-1.137c0.953-1.34,0.939-3.142-0.036-4.467l-0.817-1.117
				c-0.263-0.351-0.355-0.8-0.253-1.227c0.093-0.428,0.368-0.793,0.75-1.003l1.211-0.675c1.433-0.795,2.201-2.418,1.903-4.032
				l-0.246-1.351c-0.084-0.43,0.026-0.876,0.301-1.219c0.271-0.347,0.679-0.558,1.117-0.581l1.383-0.084
				c1.634-0.092,3.03-1.217,3.468-2.797l0.367-1.34c0.179-0.665,0.781-1.126,1.471-1.126c0.2,0,0.398,0.04,0.586,0.116l1.283,0.524
				c0.461,0.189,0.956,0.288,1.454,0.292c1.106-0.002,2.158-0.48,2.887-1.314l0.909-1.04c0.554-0.636,1.518-0.703,2.155-0.15
				c0.047,0.042,0.09,0.085,0.132,0.132l0.926,1.03c0.728,0.811,1.762,1.274,2.852,1.278c0.518,0,1.032-0.104,1.508-0.311
				l1.275-0.548c0.188-0.083,0.393-0.123,0.6-0.122c0.677,0,1.273,0.448,1.465,1.099l0.383,1.331
				c0.461,1.577,1.873,2.686,3.514,2.756l1.381,0.058c0.438,0.015,0.851,0.22,1.125,0.562c0.279,0.337,0.396,0.779,0.319,1.21
				l-0.235,1.369c-0.271,1.619,0.521,3.232,1.972,4.002l1.218,0.658c0.745,0.396,1.025,1.32,0.631,2.064
				c-0.029,0.054-0.064,0.108-0.099,0.158l-0.798,1.133c-0.952,1.342-0.938,3.141,0.038,4.469l0.814,1.113
				C45.036,28.688,45.118,29.129,45.03,29.551z"/>
			<path id="Path_104" fill="#EE6323" d="M28.239,21.395l-5.027,5.002l-1.63-1.641c-0.449-0.451-1.177-0.451-1.625-0.004
				c-0.452,0.448-0.455,1.176-0.006,1.625l2.447,2.457c0.216,0.217,0.51,0.338,0.816,0.338l0,0c0.303-0.003,0.594-0.121,0.805-0.338
				l5.841-5.801c0.452-0.449,0.455-1.177,0.004-1.628c-0.445-0.449-1.175-0.451-1.624-0.003L28.239,21.395z"/>
		</g>
	</g>
</g>
<g id="Layer_6" display="none">
	<g id="FeedBack" display="inline">
		<g id="feedback" transform="translate(0 -21.333)">
			<g id="Group_307" transform="translate(0 21.333)">
				<g id="Group_306">
					<path id="Path_105" fill="#ED6425" d="M11.576,14.675h22.713c0.571,0,1.033-0.463,1.033-1.032c0-0.569-0.462-1.033-1.033-1.033
						H11.576c-0.57,0-1.031,0.464-1.031,1.033C10.545,14.212,11.006,14.675,11.576,14.675z"/>
					<path id="Path_106" fill="#ED6425" d="M23.966,25h-12.39c-0.57,0-1.031,0.462-1.031,1.033c0,0.569,0.462,1.033,1.031,1.033
						h12.39c0.571,0,1.033-0.464,1.033-1.033C25,25.462,24.537,25,23.966,25z"/>
					<path id="Path_107" fill="#ED6425" d="M45.829,6.414c-0.061,0-0.118,0.015-0.179,0.018V6.414
						c-0.003-2.28-1.849-4.129-4.129-4.13H4.346c-2.279,0.001-4.128,1.85-4.131,4.13v40.272c0,0.419,0.254,0.796,0.643,0.953
						c0.125,0.053,0.259,0.078,0.395,0.078c0.275,0.001,0.537-0.107,0.73-0.301l10.024-10.025h29.515
						c2.28-0.001,4.128-1.85,4.131-4.13V16.134l2.976-2.972l0,0c1.542-1.543,1.542-4.046,0-5.59
						c-0.742-0.742-1.749-1.158-2.796-1.158L45.829,6.414z M43.591,33.263c-0.002,1.139-0.926,2.062-2.063,2.063H11.575
						c-0.275-0.002-0.537,0.108-0.73,0.303l-8.563,8.564V6.414c0-1.14,0.923-2.064,2.063-2.065h37.177
						c1.142-0.001,2.067,0.923,2.069,2.065l0,0v0.706c-0.195,0.134-0.383,0.285-0.553,0.453L31.803,18.805H11.575
						c-0.57,0-1.032,0.463-1.032,1.033c0,0.569,0.463,1.031,1.032,1.031l0,0h18.566l-0.991,4.96
						c-0.117,0.555,0.24,1.099,0.795,1.212c0.072,0.015,0.146,0.022,0.218,0.022c0.068,0,0.136-0.008,0.201-0.021l5.162-1.025
						c0.201-0.041,0.384-0.138,0.527-0.284l7.533-7.53L43.591,33.263z M34.818,24.049l-3.335,0.667l0.666-3.336l9.37-9.367
						l2.668,2.671L34.818,24.049z M47.169,11.701l-1.514,1.513l-2.673-2.671l1.509-1.513c0.749-0.727,1.942-0.709,2.67,0.039
						c0.71,0.734,0.71,1.9-0.002,2.632H47.169z"/>
				</g>
			</g>
		</g>
	</g>
</g>
<g id="Layer_11" display="none">
	<g id="SR_Status" display="inline">
		<g id="Group_308_2_" transform="translate(-675 -648)">
			<g id="Rectangle_218_2_" transform="translate(675 648)">
				<rect x="1.375" y="1.375" fill="none" stroke="#ED6425" stroke-width="2" width="47.25" height="47.25"/>
			</g>
			<line id="Line_13_2_" fill="none" stroke="#ED6425" stroke-width="2" x1="687.076" y1="672.189" x2="697.332" y2="682.445"/>
			<line id="Line_14_2_" fill="none" stroke="#ED6425" stroke-width="2" x1="713.568" y1="664.846" x2="696.471" y2="681.939"/>
		</g>
	</g>
</g>
</svg>
